# xmcd CD database file
#
# Track frame offsets:
#	150
#	14153
#	28558
#	41971
#	57850
#	75640
#	93970
#	115187
#	130486
#	141886
#
# Disc length: 2092 seconds
#
# Revision: 0
# Processed by: cddbd v1.5.2PL0 Copyright (c) Steve Scherf et al.
# Submitted via: CDex 1.70beta2
#
DISCID=88082a0a
DTITLE=THE USUAL SUSPECTS - Cdn. - OVM - Renfrew, ON - WANTED
DYEAR=1900
DGENRE=Country
TTITLE0=My WIndow Faces The South 
TTITLE1=I Don't Believe 
TTITLE2=Shame on You 
TTITLE3=Sugar Moon 
TTITLE4=Mr. Moon  
TTITLE5=Just One Time 
TTITLE6=Adobe Hacienda 
TTITLE7=Making Believe
TTITLE8=Cotton Patch
TTITLE9=Jerusalem Ridge
EXTD=
EXTT0=
EXTT1=
EXTT2=
EXTT3=
EXTT4=
EXTT5=
EXTT6=
EXTT7=
EXTT8=
EXTT9=
PLAYORDER=
